HIERARCHY
ROOT hip
{
	OFFSET 0.000000 0.000000 0.000000 
	CHANNELS 6 Xposition Yposition Zposition Xrotation Zrotation Yrotation
	JOINT abdomen
	{
		OFFSET 0.000000 3.402643 0.000000 
		CHANNELS 3 Xrotation Zrotation Yrotation
		JOINT chest
		{
			OFFSET 0.000000 8.438565 -0.680529 
			CHANNELS 3 Xrotation Zrotation Yrotation
			JOINT neck
			{
				OFFSET 0.000000 10.207942 -0.272212 
				CHANNELS 3 Xrotation Zrotation Yrotation
				JOINT head
				{
					OFFSET 0.000000 3.130431 0.000000 
					CHANNELS 3 Xrotation Zrotation Yrotation
					End Site
					{
						OFFSET 0.000000 3.130435 0.000000 
					}
				}
			}
			JOINT lCollar
			{
				OFFSET 3.470700 6.669187 -0.816635 
				CHANNELS 3 Yrotation Zrotation Xrotation
				JOINT lShldr
				{
					OFFSET 3.198488 0.000000 0.000000 
					CHANNELS 3 Zrotation Yrotation Xrotation
					JOINT lForeArm
					{
						OFFSET 10.139888 0.000000 0.000000 
						CHANNELS 3 Yrotation Zrotation Xrotation
						JOINT lHand
						{
							OFFSET 8.370511 0.000000 0.000000 
							CHANNELS 3 Zrotation Yrotation Xrotation
							End Site
							{
								OFFSET 4.083176 0.000000 0.000000 
							}
						}
					}
				}
			}
			JOINT rCollar
			{
				OFFSET -3.470700 6.669187 -0.816635 
				CHANNELS 3 Yrotation Zrotation Xrotation
				JOINT rShldr
				{
					OFFSET -3.198488 0.000000 0.000000 
					CHANNELS 3 Zrotation Yrotation Xrotation
					JOINT rForeArm
					{
						OFFSET -10.139888 0.000000 0.000000 
						CHANNELS 3 Yrotation Zrotation Xrotation
						JOINT rHand
						{
							OFFSET -8.370511 0.000000 0.000000 
							CHANNELS 3 Zrotation Yrotation Xrotation
							End Site
							{
								OFFSET -4.083176 0.000000 0.000000 
							}
						}
					}
				}
			}
		}
	}
	JOINT lThigh
	{
		OFFSET 5.308129 -1.633274 1.361059 
		CHANNELS 3 Xrotation Zrotation Yrotation
		JOINT lShin
		{
			OFFSET -2.041588 -20.007561 0.000000 
			CHANNELS 3 Xrotation Zrotation Yrotation
			JOINT lFoot
			{
				OFFSET 0.000000 -19.190928 -1.224953 
				CHANNELS 3 Xrotation Yrotation Zrotation
				End Site
				{
					OFFSET 0.000000 -2.449906 4.627600 
				}
			}
		}
	}
	JOINT rThigh
	{
		OFFSET -5.308129 -1.633274 1.361059 
		CHANNELS 3 Xrotation Zrotation Yrotation
		JOINT rShin
		{
			OFFSET 2.041588 -20.007561 0.000000 
			CHANNELS 3 Xrotation Zrotation Yrotation
			JOINT rFoot
			{
				OFFSET 0.000000 -19.190928 -1.224953 
				CHANNELS 3 Xrotation Yrotation Zrotation
				End Site
				{
					OFFSET 0.000000 -2.449906 4.627600 
				}
			}
		}
	}
}
MOTION
Frames: 13
Frame Time: 0.016667
-0.355439 49.031853 -22.851088 -15.120021 -8.212099 -15.208886 41.305618 8.549066 3.846028 4.487072 4.842445 -2.269952 1.592145 -5.666462 -0.182894 6.486560 -18.248014 38.993153 -9.667057 -12.054887 -0.637944 -22.042221 -9.068966 -6.662407 -100.295151 5.000000 5.517356 -20.194374 -17.563683 -18.042360 8.074799 -0.124250 0.008757 50.010769 51.405552 25.677006 111.951439 -5.000000 8.129394 20.521738 -6.699670 -45.000000 -16.160568 25.426355 8.399849 34.748695 -4.259134 -3.204799 3.471355 -2.243096 -8.636456 20.642811 -9.618892 -16.590483 39.173843 1.393229 1.116549 -33.658798 -14.144535 9.359216 
-0.362266 49.030666 -22.852329 -15.137548 -8.183828 -15.207493 41.291824 8.495315 3.818853 4.458603 4.842465 -2.260221 1.650584 -5.618184 -0.190190 6.499270 -18.245224 38.972118 -9.696130 -12.035378 -0.636938 -22.054346 -9.004632 -6.657851 -100.295151 5.000000 5.517356 -20.237486 -17.615797 -17.967947 8.084564 -0.124250 0.008757 50.069744 51.377876 25.729805 111.923706 -5.000000 8.117882 20.580675 -6.715090 -45.000000 -16.171419 25.399313 8.371261 34.743618 -4.230245 -3.147110 3.515668 -2.260613 -8.712306 20.661036 -9.648040 -16.608650 39.192650 1.393222 1.137035 -33.652180 -14.123045 9.354458 
-0.368499 49.028759 -22.849976 -15.146132 -8.193630 -15.199226 41.279099 8.472720 3.795743 4.449665 4.842484 -2.250490 1.649478 -5.568454 -0.186927 6.541275 -18.242420 38.951077 -9.684092 -12.017519 -0.626518 -22.058216 -8.997277 -6.640163 -100.316605 5.000000 5.526213 -20.208174 -17.596663 -18.002520 8.074778 -0.115870 -0.001416 50.122017 51.392120 25.784054 111.905144 -5.000000 8.133109 20.649681 -6.699393 -45.000000 -16.139915 25.384735 8.366489 34.757362 -4.196313 -3.129021 3.492459 -2.277179 -8.781234 20.665415 -9.598256 -16.616400 39.203262 1.363965 1.127791 -33.668255 -14.149025 9.402447 
-0.374340 49.026382 -22.845230 -15.159313 -8.222281 -15.189570 41.258492 8.477809 3.788662 4.459655 4.832721 -2.230959 1.608388 -5.517273 -0.175006 6.576995 -18.252415 38.942085 -9.635045 -11.998015 -0.625512 -22.055969 -9.029143 -6.615655 -100.371841 5.000000 5.553411 -20.107740 -17.534353 -18.130697 8.055246 -0.106114 -0.001921 50.174313 51.406315 25.838329 111.908676 -5.000000 8.175043 20.725254 -6.649377 -45.000000 -16.129593 25.393398 8.347507 34.777710 -4.186594 -3.137471 3.502154 -2.232732 -8.786126 20.686914 -9.578679 -16.621569 39.213043 1.338144 1.139089 -33.668633 -14.092792 9.445807 
-0.380435 49.024715 -22.841154 -15.161323 -8.250555 -15.190974 41.238491 8.492021 3.785002 4.469645 4.822958 -2.230960 1.568279 -5.477199 -0.171234 6.612537 -18.257206 38.921040 -9.588151 -11.986635 -0.634428 -22.063572 -9.062132 -6.589604 -100.415749 5.000000 5.572601 -20.046513 -17.489012 -18.237089 8.045499 -0.094993 0.007245 50.202644 51.434387 25.885071 111.899872 -5.000000 8.198553 20.760754 -6.610792 -45.000000 -16.131184 25.406364 8.327376 34.809238 -4.167177 -3.134181 3.501881 -2.193927 -8.793486 20.711796 -9.531175 -16.629168 39.204098 1.334705 1.118000 -33.690258 -14.142699 9.476466 
-0.387533 49.025906 -22.839754 -15.167335 -8.269784 -15.181316 41.257664 8.481913 3.790252 4.430807 4.813195 -2.230961 1.529158 -5.457887 -0.174155 6.615914 -18.229628 38.935970 -9.510139 -11.996402 -0.634933 -22.066137 -9.125447 -6.562168 -100.435837 5.000000 5.588327 -20.086477 -17.509287 -18.264441 8.045495 -0.036477 0.004220 50.168011 51.414955 25.883121 111.917633 -5.000000 8.175075 20.704977 -6.584814 -45.000000 -16.109695 25.421995 8.308931 34.809578 -4.167205 -3.124490 3.416096 -2.157062 -8.784991 20.721556 -9.512115 -16.604443 39.194580 1.351629 1.103742 -33.680870 -14.136413 9.459373 
-0.394633 49.027100 -22.838352 -15.185703 -8.279592 -15.171659 41.268291 8.466459 3.803581 4.392567 4.813213 -2.221230 1.498883 -5.437124 -0.167461 6.619303 -18.202057 38.950905 -9.432014 -11.996414 -0.634935 -22.069765 -9.179874 -6.538645 -100.445702 5.000000 5.600416 -20.129326 -17.526251 -18.280085 8.045494 0.012286 0.001699 50.123535 51.405216 25.873638 111.936852 -5.000000 8.150969 20.647076 -6.565818 -45.000000 -16.132057 25.457365 8.284346 34.840321 -4.151928 -3.132095 3.397728 -2.175392 -8.802486 20.741684 -9.473199 -16.584686 39.175976 1.331988 1.086392 -33.666435 -14.160963 9.451875 
-0.403292 49.027336 -22.838394 -15.201148 -8.281114 -15.133036 41.222488 8.449271 3.760181 4.295512 4.822995 -2.221264 1.695840 -5.382094 -0.195451 6.755180 -18.216393 38.890839 -9.576560 -12.007767 -0.626015 -22.075212 -9.006458 -6.507494 -100.433197 5.000000 5.600024 -20.156652 -17.546925 -18.319082 8.191980 0.061049 -0.000821 50.022659 51.181030 25.791082 111.948540 -5.000000 8.153855 20.635672 -6.487359 -45.000000 -16.161726 25.438335 8.182732 34.831669 -4.157063 -3.084288 3.438284 -2.187514 -8.866274 20.754604 -9.470861 -16.615053 39.165756 1.347983 1.091182 -33.662048 -14.183187 9.425006 
-0.412344 49.027332 -22.838793 -15.220585 -8.273580 -15.083344 41.175285 8.426373 3.702823 4.179537 4.842558 -2.211567 1.941617 -5.336719 -0.221983 6.919966 -18.237862 38.800720 -9.762107 -12.007767 -0.626015 -22.072514 -8.766426 -6.474679 -100.411598 5.000000 5.595381 -20.164543 -17.556456 -18.379765 8.367766 0.119565 -0.003846 49.920773 50.895016 25.696701 111.949806 -5.000000 8.157307 20.631897 -6.384734 -45.000000 -16.191381 25.419270 8.081126 34.842846 -4.147367 -3.072548 3.534888 -2.215055 -8.953902 20.819473 -9.453690 -16.681341 39.145195 1.371013 1.107504 -33.697334 -14.212084 9.362111 
-0.418158 49.025429 -22.837360 -15.237447 -8.275469 -15.033656 41.141411 8.423248 3.667961 4.120943 4.842558 -2.221333 2.040056 -5.309203 -0.235981 7.004332 -18.242628 38.779675 -9.840232 -12.007767 -0.626015 -22.081167 -8.681004 -6.447456 -100.401390 5.000000 5.591712 -20.174393 -17.539404 -18.428257 8.445891 0.129318 -0.004350 49.893044 50.751316 25.665802 111.960030 -5.000000 8.160771 20.632288 -6.326501 -45.000000 -16.207493 25.404272 8.018855 34.883617 -4.130133 -3.081057 3.546767 -2.222174 -9.017276 20.860607 -9.461491 -16.725124 39.134060 1.393159 1.133732 -33.687157 -14.210286 9.329189 
-0.419122 49.020668 -22.833183 -15.251756 -8.286786 -14.985373 41.134228 8.447199 3.681931 4.139040 4.832758 -2.231029 1.912244 -5.317407 -0.224905 6.950078 -18.223557 38.860798 -9.752123 -11.988262 -0.625009 -22.082945 -8.800942 -6.427088 -100.397476 5.000000 5.576513 -20.171692 -17.454538 -18.465317 8.348233 0.090307 -0.002334 50.002239 50.798168 25.729113 111.967735 -5.000000 8.157327 20.630262 -6.333383 -45.000000 -16.248665 25.417265 7.982744 34.934219 -4.112711 -3.089586 3.533612 -2.186325 -9.005907 20.897467 -9.433386 -16.767731 39.133663 1.406441 1.138170 -33.671169 -14.188276 9.360205 
-0.420085 49.015911 -22.829000 -15.252352 -8.307161 -14.946753 41.137703 8.479003 3.700171 4.157145 4.822957 -2.250491 1.783528 -5.324160 -0.204213 6.908734 -18.206839 38.929871 -9.654248 -11.968759 -0.624003 -22.082785 -8.924541 -6.415518 -100.394592 5.000000 5.567733 -20.169054 -17.369652 -18.502342 8.260339 0.051297 -0.000317 50.125507 50.840721 25.800251 111.975647 -5.000000 8.149842 20.622282 -6.330160 -45.000000 -16.256184 25.412666 7.980705 34.963654 -4.093115 -3.144385 3.495611 -2.168128 -8.991231 20.919813 -9.412790 -16.803572 39.124504 1.422451 1.113874 -33.649685 -14.193882 9.369739 
-0.422588 49.011147 -22.825516 -15.270356 -8.299227 -14.906715 41.166325 8.481471 3.692397 4.196208 4.822958 -2.240726 1.547384 -5.330912 -0.183522 6.853680 -18.202059 38.950905 -9.509916 -11.976898 -0.633928 -22.061785 -9.116624 -6.397240 -100.378792 5.000000 5.537446 -20.284348 -17.320368 -18.430885 8.084558 0.051297 -0.000317 50.235722 50.960865 25.918993 111.991486 -5.000000 8.131671 20.649878 -6.428743 -45.000000 -16.265152 25.411535 7.939602 34.999329 -4.132638 -3.148729 3.540846 -2.147699 -8.961349 20.964211 -9.413640 -16.874176 39.143967 1.412630 1.121390 -33.686436 -14.105019 9.374888 
